<mxfile host="app.diagrams.net" agent="Mozilla/5.0 (Windows NT 10.0; Win64; x64) AppleWebKit/537.36 (KHTML, like Gecko) Chrome/130.0.0.0 Safari/537.36" version="24.8.4">
  <diagram name="Страница — 1" id="Sy1zq9Fmk5uxA_jA6DKb">
    <mxGraphModel>
      <root>
        <mxCell id="0" />
        <mxCell id="1" parent="0" />
        <mxCell id="2" value="Add_custom_domain" style="whiteSpace=wrap;strokeWidth=2;verticalAlign=top;" vertex="1" parent="1">
          <mxGeometry x="83" y="8" width="600" height="142" as="geometry" />
        </mxCell>
        <mxCell id="3" value="Obtain_SSL_certificate" style="whiteSpace=wrap;strokeWidth=2;" vertex="1" parent="2">
          <mxGeometry x="43" y="54" width="224" height="49" as="geometry" />
        </mxCell>
        <mxCell id="4" value="Attach_SSL_certificate_to_CloudFront" style="whiteSpace=wrap;strokeWidth=2;" vertex="1" parent="2">
          <mxGeometry x="317" y="46" width="256" height="67" as="geometry" />
        </mxCell>
        <mxCell id="5" value="Create_CloudFront_Distribution" style="whiteSpace=wrap;strokeWidth=2;verticalAlign=top;" vertex="1" parent="1">
          <mxGeometry x="75" y="200" width="616" height="142" as="geometry" />
        </mxCell>
        <mxCell id="6" value="Define_origin_S3_bucket" style="whiteSpace=wrap;strokeWidth=2;" vertex="1" parent="5">
          <mxGeometry x="43" y="54" width="238" height="49" as="geometry" />
        </mxCell>
        <mxCell id="7" value="Configure_CDN_cache_settings" style="whiteSpace=wrap;strokeWidth=2;" vertex="1" parent="5">
          <mxGeometry x="331" y="46" width="258" height="67" as="geometry" />
        </mxCell>
        <mxCell id="8" value="Upload_to_S3_bucket" style="whiteSpace=wrap;strokeWidth=2;verticalAlign=top;" vertex="1" parent="1">
          <mxGeometry x="8" y="391" width="750" height="124" as="geometry" />
        </mxCell>
        <mxCell id="9" value="Create_S3_bucket" style="whiteSpace=wrap;strokeWidth=2;" vertex="1" parent="8">
          <mxGeometry x="43" y="46" width="190" height="49" as="geometry" />
        </mxCell>
        <mxCell id="10" value="Set_bucket_policy" style="whiteSpace=wrap;strokeWidth=2;" vertex="1" parent="8">
          <mxGeometry x="283" y="46" width="192" height="49" as="geometry" />
        </mxCell>
        <mxCell id="11" value="Upload_static_files" style="whiteSpace=wrap;strokeWidth=2;" vertex="1" parent="8">
          <mxGeometry x="525" y="46" width="198" height="49" as="geometry" />
        </mxCell>
        <mxCell id="12" value="Build_static_website" style="whiteSpace=wrap;strokeWidth=2;verticalAlign=top;" vertex="1" parent="1">
          <mxGeometry x="86" y="565" width="594" height="142" as="geometry" />
        </mxCell>
        <mxCell id="13" value="Select_static_site_generator" style="whiteSpace=wrap;strokeWidth=2;" vertex="1" parent="12">
          <mxGeometry x="43" y="46" width="260" height="67" as="geometry" />
        </mxCell>
        <mxCell id="14" value="Generate_static_files" style="whiteSpace=wrap;strokeWidth=2;" vertex="1" parent="12">
          <mxGeometry x="353" y="54" width="214" height="49" as="geometry" />
        </mxCell>
        <mxCell id="15" value="Start" style="ellipse;aspect=fixed;strokeWidth=2;whiteSpace=wrap;" vertex="1" parent="1">
          <mxGeometry x="358" y="757" width="51" height="51" as="geometry" />
        </mxCell>
        <mxCell id="16" value="Build_static_website" style="rounded=1;arcSize=40;strokeWidth=2" vertex="1" parent="1">
          <mxGeometry x="808" y="758" width="179" height="49" as="geometry" />
        </mxCell>
        <mxCell id="17" value="Upload_to_S3_bucket" style="rounded=1;arcSize=40;strokeWidth=2" vertex="1" parent="1">
          <mxGeometry x="1037" y="758" width="185" height="49" as="geometry" />
        </mxCell>
        <mxCell id="18" value="Create_CloudFront_Distribution" style="rounded=1;arcSize=40;strokeWidth=2" vertex="1" parent="1">
          <mxGeometry x="1272" y="749" width="229" height="67" as="geometry" />
        </mxCell>
        <mxCell id="19" value="Add_custom_domain" style="rounded=1;arcSize=40;strokeWidth=2" vertex="1" parent="1">
          <mxGeometry x="1552" y="758" width="179" height="49" as="geometry" />
        </mxCell>
        <mxCell id="20" value="Update_DNS_records" style="rounded=1;arcSize=40;strokeWidth=2" vertex="1" parent="1">
          <mxGeometry x="1781" y="758" width="180" height="49" as="geometry" />
        </mxCell>
        <mxCell id="21" value="End" style="ellipse;aspect=fixed;strokeWidth=2;whiteSpace=wrap;" vertex="1" parent="1">
          <mxGeometry x="2011" y="761" width="41" height="41" as="geometry" />
        </mxCell>
        <mxCell id="22" value="" style="curved=1;startArrow=none;endArrow=block;exitX=0.99;exitY=0.49;entryX=0;entryY=0.49;" edge="1" parent="1" source="15" target="16">
          <mxGeometry relative="1" as="geometry">
            <Array as="points" />
          </mxGeometry>
        </mxCell>
        <mxCell id="23" value="" style="curved=1;startArrow=none;endArrow=block;exitX=1;exitY=0.49;entryX=0;entryY=0.49;" edge="1" parent="1" source="16" target="17">
          <mxGeometry relative="1" as="geometry">
            <Array as="points" />
          </mxGeometry>
        </mxCell>
        <mxCell id="24" value="" style="curved=1;startArrow=none;endArrow=block;exitX=1;exitY=0.49;entryX=0;entryY=0.49;" edge="1" parent="1" source="17" target="18">
          <mxGeometry relative="1" as="geometry">
            <Array as="points" />
          </mxGeometry>
        </mxCell>
        <mxCell id="25" value="" style="curved=1;startArrow=none;endArrow=block;exitX=1;exitY=0.49;entryX=0;entryY=0.49;" edge="1" parent="1" source="18" target="19">
          <mxGeometry relative="1" as="geometry">
            <Array as="points" />
          </mxGeometry>
        </mxCell>
        <mxCell id="26" value="" style="curved=1;startArrow=none;endArrow=block;exitX=1;exitY=0.49;entryX=0;entryY=0.49;" edge="1" parent="1" source="19" target="20">
          <mxGeometry relative="1" as="geometry">
            <Array as="points" />
          </mxGeometry>
        </mxCell>
        <mxCell id="27" value="" style="curved=1;startArrow=none;endArrow=block;exitX=1;exitY=0.49;entryX=-0.01;entryY=0.52;" edge="1" parent="1" source="20" target="21">
          <mxGeometry relative="1" as="geometry">
            <Array as="points" />
          </mxGeometry>
        </mxCell>
      </root>
    </mxGraphModel>
  </diagram>
</mxfile>
